<svg width="254" height="126" viewBox="0 0 254 126" fill="none" xmlns="http://www.w3.org/2000/svg">
<path d="M242.421 42.4362C246.353 35.6709 247.111 30.1588 245.738 25.7888C244.365 21.4188 240.592 17.3298 233.498 14.0279C226.382 10.716 216.499 8.49736 204.289 7.71257C198.108 7.31533 191.427 7.29135 184.34 7.65111L184.43 0.838668C220.61 -0.950786 247.241 6.9108 252.503 23.6638C260.918 50.454 211.503 89.8366 142.132 111.627C72.7599 133.418 9.70121 129.365 1.28602 102.575C-5.14926 82.0876 22.2345 54.2365 66.5 32.5201L66.4001 40.1543C52.8484 47.0249 41.1097 54.4351 31.7192 61.9192C22.1507 69.545 15.3115 77.0163 11.3676 83.8023C7.43572 90.5675 6.67842 96.0796 8.05111 100.45C9.42379 104.82 13.1969 108.909 20.291 112.211C27.4068 115.522 37.2898 117.741 49.5002 118.526C73.8809 120.093 106.061 115.851 140.1 105.159C174.139 94.4675 202.964 79.546 222.07 64.3193C231.638 56.6935 238.478 49.2222 242.421 42.4362Z" fill="black"/>
</svg>
