<svg width="258" height="219" viewBox="0 0 258 219" fill="none" xmlns="http://www.w3.org/2000/svg">
<path fill-rule="evenodd" clip-rule="evenodd" d="M242.854 42.629C246.786 35.8637 247.543 30.3517 246.171 25.9816C244.798 21.6116 241.025 17.5226 233.931 14.2208C226.815 10.9088 216.932 8.69019 204.721 7.9054C198.541 7.50816 191.859 7.48418 184.773 7.84394L184.862 1.0315C221.042 -0.757958 247.673 7.10363 252.936 23.8566C255.839 33.1001 251.858 43.8427 242.548 54.8445C249.102 58.4949 253.551 63.2636 255.39 69.1182C258.472 78.9323 253.794 90.4362 243.218 102.146C250.015 105.827 254.623 110.678 256.503 116.664C264.918 143.454 215.503 182.837 146.132 204.627C76.7601 226.418 13.7014 222.365 5.28624 195.575C2.20349 185.761 6.88147 174.257 17.4583 162.547C10.6611 158.866 6.0529 154.015 4.17265 148.029C1.28631 138.84 4.9244 127.873 13.8089 116.613C7.66589 113.02 3.48641 108.396 1.71855 102.767C-4.71673 82.2804 21.2806 52.9548 65.5461 31.2385V38.7385C51.9944 45.6091 40.9366 53.2545 31.5461 60.7385C21.9777 68.3643 15.744 77.2091 11.8001 83.9951C7.86824 90.7604 7.11095 96.2724 8.48363 100.642C9.69965 104.514 12.7994 108.164 18.4228 111.243C29.6856 99.1214 46.7349 86.9327 68.0002 76.5V84C54.4485 90.8706 43.3907 98.516 34.0002 106C30.6882 108.64 27.7758 111.425 25.2196 114.221C31.7998 116.529 40.1137 118.088 49.9327 118.719C74.3134 120.286 106.494 116.044 140.533 105.352C174.571 94.6603 203.397 79.7388 222.502 64.5121C225.547 62.0853 228.316 59.6742 230.803 57.2958C224.402 55.19 216.462 53.7638 207.176 53.1669C200.995 52.7697 194.313 52.7457 187.227 53.1055L187.316 46.293C207.041 45.3175 223.928 47.2104 236.061 51.8488C238.866 48.6747 241.135 45.5867 242.854 42.629ZM237.696 60.1206C218.622 79.3403 184.185 98.7464 142.564 111.82C116.856 119.895 92.0143 124.422 70.4998 125.556L70.4003 133.154C56.8486 140.025 45.1099 147.435 35.7194 154.919C33.5324 156.662 31.488 158.397 29.5882 160.118C35.8409 162.078 43.497 163.409 52.3868 163.98C76.7675 165.547 108.948 161.306 142.987 150.614C177.025 139.922 205.851 125 224.956 109.774C227.143 108.031 229.188 106.296 231.088 104.575C224.835 102.615 217.179 101.284 208.289 100.713C202.109 100.315 195.427 100.291 188.341 100.651L188.43 93.8387C207.854 92.878 224.526 94.6991 236.617 99.1845C240.311 95.2799 243.217 91.4889 245.308 87.8906C249.24 81.1253 249.997 75.6132 248.625 71.2432C247.339 67.1506 243.948 63.3046 237.696 60.1206ZM238.155 107.34C218.729 125.912 185.226 144.452 145.018 157.082C95.737 172.561 49.6418 174.999 24.0592 165.508C20.3645 169.413 17.4591 173.204 15.3678 176.802C11.4359 183.568 10.6786 189.08 12.0513 193.45C13.424 197.82 17.1971 201.909 24.2912 205.211C31.407 208.523 41.29 210.741 53.5004 211.526C77.8811 213.093 110.062 208.851 144.1 198.159C178.139 187.468 206.964 172.546 226.07 157.319C235.639 149.693 242.478 142.222 246.422 135.436C250.354 128.671 251.111 123.159 249.738 118.789C248.408 114.556 244.826 110.586 238.155 107.34ZM22.5214 157.353C34.0453 146.335 50.5239 135.329 70.4175 125.561C50.1414 126.623 32.8252 124.67 20.5304 119.836C17.9806 123.178 15.9145 126.4 14.2542 129.257C10.3223 136.022 9.56505 141.534 10.9377 145.904C12.2675 150.137 15.8498 154.107 22.5214 157.353Z" fill="black"/>
</svg>
