<svg width="308" height="18" viewBox="0 0 308 18" fill="none" xmlns="http://www.w3.org/2000/svg">
<path d="M2 15.4239C15.6739 13.9365 29.4627 12.6952 43.1879 11.3272C52.8547 10.3637 62.7084 9.93124 72.3344 8.89477C81.5083 7.90696 90.5769 6.65033 99.7518 5.66221C117.996 3.69736 137.346 2.89339 155.945 2.23762C166.361 1.87038 177.194 1.9894 187.623 2.18961C191.523 2.26447 194.882 3.06565 198.584 3.61386C204.116 4.43298 209.624 5.36785 215.226 6.04628C229.969 7.83156 244.775 9.2248 259.378 11.3272C270.843 12.9778 282.946 14.6302 294.823 15.2639C298.426 15.4561 302.55 15.404 306 16" stroke="black" stroke-width="4" stroke-linecap="round"/>
</svg>
